{"title":"ë„ˆë¥¼ ê¸°ì–µí•´ I.Remember.You.HDTV.x264.1080p-DoA","uid":12351522,"size":45197665607,"categoryP":"video","categoryS":"hd___tv_shows","magnet":"?xt=urn:btih:d3baca41b81eba52a3abc771234c8b41303aafad&amp;dn=%EB%84%88%EB%A5%BC+%EA%B8%B0%EC%96%B5%ED%95%B4+I.Remember.You.HDTV.x264.1080p-DoA&amp;tr=udp%3A%2F%2Ftracker.openbittorrent.com%3A80&amp;tr=udp%3A%2F%2Fopen.demonii.com%3A1337&amp;tr=udp%3A%2F%2Ftracker.coppersurfer.tk%3A6969&amp;tr=udp%3A%2F%2Fexodus.desync.com%3A6969","seeders":0,"leechers":1,"uploader":null,"files":16,"time":1441431568,"description":" &lt;a href=&quot;http://i.imgur.com/on4auY1.jpg&quot; rel=&quot;nofollow&quot; target=&quot;_NEW&quot;&gt;http://i.imgur.com/on4auY1.jpg&lt;/a&gt; &lt;a href=&quot;\nhttp://i.imgur.com/kv1s9YS.jpg&quot; rel=&quot;nofollow&quot; target=&quot;_NEW&quot;&gt;\nhttp://i.imgur.com/kv1s9YS.jpg&lt;/a&gt; &lt;a href=&quot;\nhttp://i.imgur.com/YywKRFg.jpg&quot; rel=&quot;nofollow&quot; target=&quot;_NEW&quot;&gt;\nhttp://i.imgur.com/YywKRFg.jpg&lt;/a&gt; &lt;a href=&quot;\nhttp://i.imgur.com/6tOmvqa.jpg&quot; rel=&quot;nofollow&quot; target=&quot;_NEW&quot;&gt;\nhttp://i.imgur.com/6tOmvqa.jpg&lt;/a&gt;\n\n\n\nI.Remember.You.E01.1080p.HDTV.x264.AC3-DoA.mkv\nFormat                         : Matroska\nFormat version                 : Version 4 / Version 2\nFile size                      : 2.59 GiB\nDuration                       : 59mn 6s\nOverall bit rate               : 6 266 Kbps\nMovie name                     : ë„ˆë¥¼ ê¸°ì–µí•´. Encoded by Elanor\nEncoded date                   : UTC 2015-08-22 06:02:25\nWriting application            : mkvmerge v8.3.0 ('Over the Horizon') 64bit\nWriting library                : libebml v1.3.1 + libmatroska v1.4.2\nDURATION                       : 00:59:06.209000000\nNUMBER_OF_FRAMES               : 85187\nNUMBER_OF_BYTES                : 2606688765\n_STATISTICS_WRITING_APP        : mkvmerge v8.3.0 ('Over the Horizon') 64bit\n_STATISTICS_WRITING_DATE_UTC   : 2015-08-22 06:02:25\n_STATISTICS_TAGS               : BPS DURATION NUMBER_OF_FRAMES NUMBER_OF_BYTES\n\nVideo\nID                             : 1\nFormat                         : AVC\nFormat/Info                    : Advanced Video Codec\nFormat profile                 : &lt;a class=&quot;__cf_email__&quot; href=&quot;/cdn-cgi/l/email-protection&quot; data-cfemail=&quot;b8f0d1dfd0f8f48c9689&quot;&gt;[email&amp;#160;protected]&lt;/a&gt;&lt;script data-cfhash='f9e31' type=&quot;text/javascript&quot;&gt;\n/* &lt;![CDATA[ */!function(){try{var t=&quot;currentScript&quot;in document?document.currentScript:function(){for(var t=document.getElementsByTagName(&quot;script&quot;),e=t.length;e--;)if(t[e].getAttribute(&quot;data-cfhash&quot;))return t[e]}();if(t&amp;&amp;t.previousSibling){var e,r,n,i,c=t.previousSibling,a=c.getAttribute(&quot;data-cfemail&quot;);if(a){for(e=&quot;&quot;,r=parseInt(a.substr(0,2),16),n=2;a.length-n;n+=2)i=parseInt(a.substr(n,2),16)^r,e+=String.fromCharCode(i);e=document.createTextNode(e),c.parentNode.replaceChild(e,c)}t.parentNode.removeChild(t);}}catch(u){}}()/* ]]&gt; */&lt;/script&gt;\nFormat settings, CABAC         : Yes\nFormat settings, ReFrames      : 4 frames\nCodec ID                       : V_MPEG4/ISO/AVC\nDuration                       : 59mn 6s\nBit rate                       : 5 757 Kbps\nWidth                          : 1 912 pixels\nHeight                         : 1 080 pixels\nDisplay aspect ratio           : 16:9\nFrame rate mode                : Constant\nFrame rate                     : 23.976 fps\nColor space                    : YUV\nChroma subsampling             : 4:2:0\nBit depth                      : 8 bits\nScan type                      : Progressive\nBits/(Pixel*Frame)             : 0.116\nStream size                    : 2.38 GiB (92%)\nWriting library                : x264 core 146 r2538 121396c\nEncoding settings              : cabac=1 / ref=4 / deblock=1:-2:-1 / analyse=0x3:0x113 / me=umh / subme=10 / psy=1 / psy_rd=1.00:0.00 / mixed_ref=1 / me_range=24 / chroma_me=1 / trellis=2 / 8x8dct=1 / cqm=0 / deadzone=21,11 / fast_pskip=1 / chroma_qp_offset=-4 / threads=15 / lookahead_threads=2 / sliced_threads=0 / nr=0 / decimate=1 / interlaced=0 / bluray_compat=0 / constrained_intra=0 / bframes=8 / b_pyramid=2 / b_adapt=2 / b_bias=0 / direct=3 / weightb=1 / open_gop=0 / weightp=2 / keyint=230 / keyint_min=22 / scenecut=40 / intra_refresh=0 / rc_lookahead=90 / rc=crf / mbtree=1 / crf=18.0 / qcomp=0.60 / qpmin=0 / qpmax=69 / qpstep=4 / vbv_maxrate=13000 / vbv_bufsize=13000 / crf_max=0.0 / nal_hrd=none / filler=0 / ip_ratio=1.40 / aq=1:1.00\nDefault                        : Yes\nForced                         : No\n\nAudio\nID                             : 2\nFormat                         : AC-3\nFormat/Info                    : Audio Coding 3\nMode extension                 : CM (complete main)\nFormat settings, Endianness    : Big\nCodec ID                       : A_AC3\nDuration                       : 59mn 6s\nBit rate mode                  : Constant\nBit rate                       : 384 Kbps\nChannel(s)                     : 2 channels\nChannel positions              : Front: L R\nSampling rate                  : 48.0 KHz\nBit depth                      : 16 bits\nCompression mode               : Lossy\nDelay relative to video        : 204ms\nStream size                    : 162 MiB (6%)\nDefault                        : Yes\nForced                         : No","torrent":{"xt":"urn:btih:d3baca41b81eba52a3abc771234c8b41303aafad","amp;dn":"%EB%84%88%EB%A5%BC+%EA%B8%B0%EC%96%B5%ED%95%B4+I.Remember.You.HDTV.x264.1080p-DoA","amp;tr":["udp%3A%2F%2Ftracker.openbittorrent.com%3A80","udp%3A%2F%2Fopen.demonii.com%3A1337","udp%3A%2F%2Ftracker.coppersurfer.tk%3A6969","udp%3A%2F%2Fexodus.desync.com%3A6969"],"infoHash":"d3baca41b81eba52a3abc771234c8b41303aafad","infoHashBuffer":{"type":"Buffer","data":[211,186,202,65,184,30,186,82,163,171,199,113,35,76,139,65,48,58,175,173]},"announce":[],"urlList":[]}}